<?xml version="1.0" encoding="UTF-8"?>
<svg width="220px" height="239px" viewBox="0 0 220 239" version="1.1" xmlns="http://www.w3.org/2000/svg" xmlns:xlink="http://www.w3.org/1999/xlink">
    <!-- Generator: Sketch 58 (84663) - https://sketch.com -->
    <title>编组</title>
    <desc>Created with Sketch.</desc>
    <g id="页面-1" stroke="none" stroke-width="1" fill="none" fill-rule="evenodd">
        <g id="编组" transform="translate(-20.413499, 0.000000)">
            <path d="M59.6709421,24.4534282 C76.5984427,-13.803475 184.222507,-6.80156389 217.337604,42.8618665 C250.4527,92.5252969 212.606875,202.859325 178.681962,202.859325 C144.757049,202.859325 144.757049,128.365637 130.768775,106.488309 C116.780501,84.6109802 42.7434415,62.7103314 59.6709421,24.4534282 Z" id="Weird-Shape" fill-opacity="0.537286932" fill="#9194FF"></path>
            <path d="M69.1705301,146.465911 C89.0288388,151.015816 89.8350729,129.442558 89.8252216,100.796657 C89.8153703,72.1507563 93.7842593,39.2925164 73.9259506,34.7426112 C54.0676419,30.192706 33.1861929,57.7136869 33.1960407,86.3595877 C33.2058955,115.005488 49.3122215,141.916006 69.1705301,146.465911 Z" id="Weird-Shape" fill-opacity="0.395132212" fill="#F5064A" transform="translate(61.669338, 90.660157) rotate(49.000000) translate(-61.669338, -90.660157) "></path>
            <path d="M210.908278,188.075861 C224.581959,188.075861 239.666667,174.983451 239.666667,158.30027 C239.666667,141.617089 224.581959,128.524679 210.908278,128.524679 C197.234597,128.524679 192.149888,147.617089 192.149888,161.30027 C192.149888,174.983451 197.234597,188.075861 210.908278,188.075861 Z" id="Weird-Shape" fill-opacity="0.265406469" fill="#EDA006"></path>
            <g id="Head/Front" transform="translate(94.666667, 61.859325)">
                <g id="Head" transform="translate(2.199998, 4.533332)" fill="#B28B67">
                    <path d="M20.6256574,4.8714306 C23.7591475,10.6320285 23.3868074,25.2442629 19.3370507,26.2738425 C17.7219215,26.6844607 14.2811123,25.6785299 10.77927,23.5966068 L12.977777,38.933331 L0,38.933331 L4.46714142,18.3940311 C1.97578995,15.5094926 0.2896624,11.9745457 0.571441984,8.01357493 C1.3833933,-3.40001077 17.4921674,-0.889167338 20.6256574,4.8714306 Z"></path>
                </g>
                <path d="M5.67054694,25.4973418 C4.04170818,18.3501095 -0.598587589,13.4780808 0.110096884,10.2835736 C0.5825532,8.15390216 1.84179091,6.82953425 3.88781003,6.31046989 C4.94599174,2.08826628 8.35884488,0.292398521 14.1263694,0.922866608 C22.7776563,1.86856874 28.0579202,5.41213694 25.7776352,13.2095334 C23.681517,13.2095334 21.1510544,12.4618581 17.6519506,13.7428667 C16.541699,14.1493255 15.7476146,15.4097901 15.2696972,17.5242604 L13.688466,17.5242604 C12.1538145,15.0149622 10.6406383,14.0928636 9.14893743,14.7579646 C7.65723651,15.4230656 7.31814865,17.0385985 8.13167382,19.6045633 L7.35275758,25.4973418 L5.67054694,25.4973418 Z" id="Hair" fill="#191847"></path>
            </g>
            <g id="8.Objects/Seat/Cube" transform="translate(29.000000, 172.259324)">
                <g id="Seat" transform="translate(29.333332, 0.000000)">
                    <polygon id="Seat-Stuff" fill="#C5CFD6" points="14.7320746 0 55.9344996 0 61.3333297 65.4719961 0 65.4719961"></polygon>
                    <polygon id="Seat-Stuff" fill-opacity="0.1" fill="#000000" points="14.7320746 0 27.404159 0 34.9886772 65.4719961 0 65.4719961"></polygon>
                </g>
            </g>
            <path d="M161.241965,160.929488 L161.395667,160.839965 C165.804552,158.370009 173.004994,161.724228 172.999994,165.453146 C172.984851,176.740876 162.683556,229.939907 162.145711,233.302899 C161.607867,236.665891 155.846206,237.554184 155.510686,233.31392 C154.976816,226.566945 153.984953,203.21032 154.977352,192.399404 C155.387048,187.936298 155.828272,183.685813 156.262643,179.893879 C150.858024,189.655279 142.497869,203.632082 131.182996,221.824002 L125.040833,219.017814 C129.864082,203.126575 133.819074,191.907782 136.905809,185.361437 C142.191048,174.152505 147.146823,164.553549 149.232549,161.172395 C152.513475,155.853711 158.22451,157.709649 161.241965,160.929488 Z" id="Skin" fill="#B28B67"></path>
            <path d="M135.036989,215.640728 L137.766349,161.50197 C139.733517,152.140618 156.38327,156.485224 156.376425,161.50197 C156.360879,172.891537 149.519202,212.236275 149.514571,215.629607 L135.036989,215.640728 Z" id="LegLower" fill="#450215" transform="translate(145.706707, 185.816473) rotate(20.000000) translate(-145.706707, -185.816473) "></path>
            <g id="5.Accessories/Shoe/Flat-Sneaker" transform="translate(138.599993, 220.792654) rotate(30.000000) translate(-138.599993, -220.792654) translate(122.333328, 210.125988)" fill="#E4E4E4">
                <path d="M1.58894004,13.0448479 C0.896313325,14.7594058 0.549999967,16.0296152 0.549999967,16.8554762 C0.549999967,17.8022014 0.71522777,19.1837089 1.04568338,20.9999987 C2.19624951,20.9999987 12.5365811,20.9999987 32.0666782,20.9999987 C32.8728039,18.4561152 32.4074614,17.0827543 30.6706507,16.8799162 C28.9338401,16.677078 27.4910419,16.4939313 26.3422563,16.3304762 L11.7733059,10.1307887 C11.5708001,10.0446142 11.3367201,10.1382158 11.2494635,10.3402577 L10.2647666,12.6203141 L10.2647666,12.6203141 C8.65693415,13.3363916 7.35040337,13.6944303 6.34517425,13.6944303 C5.47252227,13.6944303 4.2446146,13.3349772 2.66145124,12.6160708 L2.66144184,12.6160916 C2.25915982,12.4334174 1.78495912,12.6114447 1.60228494,13.0137267 C1.59761756,13.0240051 1.59316826,13.0343812 1.58894004,13.0448479 Z" id="shoe"></path>
            </g>
            <g id="5.Accessories/Shoe/Flat-Sneaker" transform="translate(152.733326, 217.059321)" fill="#E4E4E4">
                <path d="M1.58894004,13.0448479 C0.896313325,14.7594058 0.549999967,16.0296152 0.549999967,16.8554762 C0.549999967,17.8022014 0.71522777,19.1837089 1.04568338,20.9999987 C2.19624951,20.9999987 12.5365811,20.9999987 32.0666782,20.9999987 C32.8728039,18.4561152 32.4074614,17.0827543 30.6706507,16.8799162 C28.9338401,16.677078 27.4910419,16.4939313 26.3422563,16.3304762 L11.7733059,10.1307887 C11.5708001,10.0446142 11.3367201,10.1382158 11.2494635,10.3402577 L10.2647666,12.6203141 L10.2647666,12.6203141 C8.65693415,13.3363916 7.35040337,13.6944303 6.34517425,13.6944303 C5.47252227,13.6944303 4.2446146,13.3349772 2.66145124,12.6160708 L2.66144184,12.6160916 C2.25915982,12.4334174 1.78495912,12.6114447 1.60228494,13.0137267 C1.59761756,13.0240051 1.59316826,13.0343812 1.58894004,13.0448479 Z" id="shoe"></path>
            </g>
            <path d="M174.477524,169.290272 C174.477524,183.459323 167.748578,216.510144 167.74432,219.630047 L153.266659,219.641168 C155.38574,190.150246 156.137151,175.245933 155.52089,174.928229 C154.596499,174.451673 117.627108,178.61934 106.539386,178.61934 C90.5508364,178.61934 83.9366935,168.536869 83.3999968,149.859325 L115.072719,149.859325 C121.52157,150.549387 155.159366,157.334128 167.651777,159.666478 C172.999991,160.664997 174.477524,165.387063 174.477524,169.290272 Z" id="Leg-and-Butt" fill="#61021D"></path>
            <g id="Body/Long-Sleeve-1" transform="translate(77.666667, 81.859325)">
                <path d="M59.061324,48.8896646 L76.1988254,61.3822498 C80.8468687,62.6273047 84.7301586,64.1763634 87.8486952,66.0294258 C88.5853476,66.6957751 89.4756614,68.0452431 86.4205853,67.8120213 C83.3655093,67.5787994 80.1414618,67.4698802 79.7199206,68.5043133 C79.2983795,69.5387463 81.147146,70.7758148 80.2950278,72.1715359 C79.726949,73.1020166 77.0431166,70.7688707 72.2435305,65.1720983 L55.2729084,58.1861769 L59.061324,48.8896646 Z M92.5491974,2.94560923 L92.1813558,3.36238115 C90.2867447,5.52358017 88.5301331,7.77581488 89.073591,8.67456847 C89.6521107,9.63130617 91.7599575,8.91007931 92.3700085,10.4256097 C92.7767091,11.4359632 89.2845043,12.1595996 81.8933941,12.5965188 L66.0599903,21.8466983 L60.8607988,13.2484387 L81.2247872,7.17994926 C85.0237059,4.24424523 88.606958,2.09779625 91.9745433,0.740602329 C92.953955,0.557598879 94.5754169,0.663882857 92.5491974,2.94560923 Z" id="Skin" fill="#B28B67"></path>
                <path d="M26.2730101,20.3797541 C39.7584674,34.6501377 56.2210885,43.9482022 78.6816713,52.1811793 L73.6722633,62.1076316 C50.4864124,59.9773273 38.0918934,58.2647564 28.3990809,43.9653995 C25.9663815,40.3765508 21.6274823,28.0206357 19.0263503,21.6048255 L26.2730101,20.3797541 Z" id="Coat-Back" fill="#7D0326" transform="translate(48.854011, 41.243693) rotate(15.000000) translate(-48.854011, -41.243693) "></path>
                <path d="M6.35293829,72.7999964 L47.7215633,72.7999964 C38.3508771,44.4295346 33.5639748,24.9578134 33.3608564,14.3848326 C33.3505013,13.8458119 32.3476813,12.8959811 31.9040118,13.0203699 C28.6595044,13.9300117 25.1876256,13.5898884 21.4883751,12 C11.6811554,27.657816 8.28964878,46.9357579 6.35293829,72.7999964 Z" id="Shirt" fill="#F2F2F2"></path>
                <path d="M78.3035479,7.20000029 L80.4941103,18.0658558 C63.7244837,28.7725216 46.7438289,37.0663744 31.8645991,35.8883565 C38.3262918,63.4008948 38.0284697,85.9231776 23.7640106,85.9231776 L23.7640106,85.9231776 L1.70628907,85.9231776 C-1.79698629,62.5514354 7.41030689,30.145927 15.9461371,13.8008502 C16.2720948,13.1766809 16.9660913,12 18.6007379,12 L18.6007379,12 L25.010061,12 C25.0129603,12.008666 25.0158592,12.017332 25.0187577,12.025998 C36.8768691,12.1216924 56.1157517,14.2712456 78.3035479,7.20000029 Z" id="Coat-Front" fill="#A90433"></path>
            </g>
        </g>
    </g>
</svg>