<?xml version="1.0" encoding="UTF-8"?>
<svg width="250px" height="101px" viewBox="0 0 250 101" version="1.1" xmlns="http://www.w3.org/2000/svg" xmlns:xlink="http://www.w3.org/1999/xlink">
    <!-- Generator: Sketch 58 (84663) - https://sketch.com -->
    <title>编组</title>
    <desc>Created with Sketch.</desc>
    <g id="页面-1" stroke="none" stroke-width="1" fill="none" fill-rule="evenodd">
        <g id="06-Crypto-Mono" transform="translate(-36.000000, -17.000000)">
            <g id="编组" transform="translate(36.000000, 18.000000)">
                <path d="M56,36 C56,42.6271304 50.6271304,48 44,48 C37.3728696,48 32,42.6271304 32,36 C32,29.3728696 37.3728696,24 44,24 C50.6271304,24 56,29.3728696 56,36" id="Fill-159" fill="#FFADB2"></path>
                <path d="M44.5,24 C38.596439,24.6267469 34,29.5355932 34,35.4997485 C34,41.4644068 38.596439,46.3732531 44.5,47 C50.403561,46.3732531 55,41.4644068 55,35.4997485 C55,29.5355932 50.403561,24.6267469 44.5,24" id="Fill-160" fill="#FFFFFF"></path>
                <path d="M56,36 C56,42.6271304 50.6271304,48 44,48 C37.3728696,48 32,42.6271304 32,36 C32,29.3728696 37.3728696,24 44,24 C50.6271304,24 56,29.3728696 56,36 Z" id="Stroke-161" stroke="#A90433" stroke-width="1.01694915" stroke-linecap="round" stroke-linejoin="round"></path>
                <path d="M45,21 C46.7966019,21.2590799 48.4868932,21.9546005 50,23" id="Stroke-162" stroke="#A90433" stroke-width="1.01694915" stroke-linecap="round" stroke-linejoin="round"></path>
                <polygon id="Fill-163" fill="#FFFFFF" points="29.2859452 53 27 50.7142088 32.7145936 45 35 47.2857912"></polygon>
                <polygon id="Fill-164" fill="#FFADB2" points="28 50.759517 29.2403687 52 34 47.2399299 32.7596313 46"></polygon>
                <polygon id="Stroke-165" stroke="#A90433" stroke-width="1.01694915" stroke-linecap="round" stroke-linejoin="round" points="29.2859452 53 27 50.7142088 32.7145936 45 35 47.2857912"></polygon>
                <path d="M36,43 L33,46" id="Stroke-166" stroke="#A90433" stroke-width="1.01694915" stroke-linecap="round" stroke-linejoin="round"></path>
                <polyline id="Stroke-167" stroke="#A90433" stroke-width="1.01694915" stroke-linecap="round" stroke-linejoin="round" points="34 42 43.6610169 31.9722222 49.7627119 37.7777778 64 23"></polyline>
                <path d="M44,49 C51.8238462,48.4947586 58,42.5235451 58,35.2327889 C58,34.8177516 57.9800769,34.4066577 57.9407692,34" id="Stroke-168" stroke="#A90433" stroke-width="1.01694915" stroke-linecap="round" stroke-linejoin="round"></path>
                <path d="M41,21 C34.1573288,22.2937719 29,28.0323823 29,34.9162824 C29,37.0938529 29.5161061,39.1563878 30.4379526,41" id="Stroke-169" stroke="#A90433" stroke-width="1.01694915" stroke-linecap="round" stroke-linejoin="round"></path>
                <polyline id="Stroke-170" stroke="#A90433" stroke-width="1.01694915" stroke-linecap="round" stroke-linejoin="round" points="61 23 65 23 65 27"></polyline>
                <path d="M174,86.5 C174,93.9560755 167.956075,100 160.5,100 C153.043925,100 147,93.9560755 147,86.5 C147,79.0439245 153.043925,73 160.5,73 C167.956075,73 174,79.0439245 174,86.5" id="Fill-3" fill="#FFD8DB"></path>
                <path d="M228,30.5 C228,31.881 226.881,33 225.5,33 C224.119,33 223,31.881 223,30.5 C223,29.119 224.119,28 225.5,28 C226.881,28 228,29.119 228,30.5" id="Fill-5" fill="#FFD8DB"></path>
                <path d="M94,10 C94,13.8660741 90.8660741,17 87,17 C83.1339259,17 80,13.8660741 80,10 C80,6.13392593 83.1339259,3 87,3 C90.8660741,3 94,6.13392593 94,10" id="Fill-7" fill="#FFD8DB"></path>
                <path d="M209,51.5 C209,53.4330769 207.433077,55 205.5,55 C203.566923,55 202,53.4330769 202,51.5 C202,49.5669231 203.566923,48 205.5,48 C207.433077,48 209,49.5669231 209,51.5" id="Fill-9" fill="#FFD8DB"></path>
                <path d="M63,15 C63,16.1045 62.1045,17 61,17 C59.8955,17 59,16.1045 59,15 C59,13.8955 59.8955,13 61,13 C62.1045,13 63,13.8955 63,15 Z" id="Stroke-13" stroke="#A90433" stroke-width="1.01694915" stroke-linecap="round" stroke-linejoin="round"></path>
                <path d="M198,81 C198,82.1045 197.1045,83 196,83 C194.8955,83 194,82.1045 194,81 C194,79.8955 194.8955,79 196,79 C197.1045,79 198,79.8955 198,81 Z" id="Stroke-15" stroke="#FFADB2" stroke-width="1.01694915" stroke-linecap="round" stroke-linejoin="round"></path>
                <polygon id="Stroke-19" stroke="#FE737C" stroke-width="1.01694915" stroke-linecap="round" stroke-linejoin="round" points="172 42 170 45 174 45"></polygon>
                <path d="M204,47 L204,49" id="Stroke-49" stroke="#A90433" stroke-width="1.01694915" stroke-linecap="round" stroke-linejoin="round"></path>
                <path d="M204,51 L204,53" id="Stroke-51" stroke="#A90433" stroke-width="1.01694915" stroke-linecap="round" stroke-linejoin="round"></path>
                <path d="M202,49 L200,49" id="Stroke-53" stroke="#A90433" stroke-width="1.01694915" stroke-linecap="round" stroke-linejoin="round"></path>
                <path d="M208,49 L206,49" id="Stroke-55" stroke="#A90433" stroke-width="1.01694915" stroke-linecap="round" stroke-linejoin="round"></path>
                <path d="M206,47 L205,48" id="Stroke-57" stroke="#A90433" stroke-width="1.01694915" stroke-linecap="round" stroke-linejoin="round"></path>
                <path d="M203,51 L202,52" id="Stroke-59" stroke="#A90433" stroke-width="1.01694915" stroke-linecap="round" stroke-linejoin="round"></path>
                <path d="M203,48 L202,47" id="Stroke-61" stroke="#A90433" stroke-width="1.01694915" stroke-linecap="round" stroke-linejoin="round"></path>
                <path d="M206,52 L205,51" id="Stroke-63" stroke="#A90433" stroke-width="1.01694915" stroke-linecap="round" stroke-linejoin="round"></path>
                <path d="M190,24 L189,25" id="Stroke-89" stroke="#A90433" stroke-width="1.01694915" stroke-linecap="round" stroke-linejoin="round"></path>
                <path d="M186,27 L185,28" id="Stroke-91" stroke="#A90433" stroke-width="1.01694915" stroke-linecap="round" stroke-linejoin="round"></path>
                <path d="M186,25 L185,24" id="Stroke-93" stroke="#A90433" stroke-width="1.01694915" stroke-linecap="round" stroke-linejoin="round"></path>
                <path d="M190,28 L189,27" id="Stroke-95" stroke="#A90433" stroke-width="1.01694915" stroke-linecap="round" stroke-linejoin="round"></path>
                <path d="M58,93 L187,93" id="Stroke-97" stroke="#A90433" stroke-width="1.01694915" stroke-linecap="round" stroke-linejoin="round"></path>
                <path d="M53,90 L44,90" id="Stroke-99" stroke="#A90433" stroke-width="1.01694915" stroke-linecap="round" stroke-linejoin="round"></path>
                <path d="M196,90 L192,90" id="Stroke-101" stroke="#A90433" stroke-width="1.01694915" stroke-linecap="round" stroke-linejoin="round"></path>
                <path d="M48,90 L45,90" id="Stroke-103" stroke="#A90433" stroke-width="1.01694915" stroke-linecap="round" stroke-linejoin="round"></path>
                <polygon id="Fill-105" fill="#FFFFFF" points="90 92 154 92 154 47 90 47"></polygon>
                <polygon id="Fill-107" fill="#FFADB2" points="93 92 155 92 155 47 93 47"></polygon>
                <polyline id="Stroke-108" stroke="#A90433" stroke-width="1.01694915" stroke-linecap="round" stroke-linejoin="round" points="154 86.4382022 154 47 90 47 90 92 154 92 154 89.9775281"></polyline>
                <path d="M91,47 L78,60" id="Stroke-109" stroke="#A90433" stroke-width="1.01694915" stroke-linecap="round" stroke-linejoin="round"></path>
                <path d="M100,52 L94,58" id="Stroke-110" stroke="#A90433" stroke-width="1.01694915" stroke-linecap="round" stroke-linejoin="round"></path>
                <path d="M107,52 L94,65" id="Stroke-111" stroke="#A90433" stroke-width="1.01694915" stroke-linecap="round" stroke-linejoin="round"></path>
                <path d="M155,47 L168,60" id="Stroke-112" stroke="#A90433" stroke-width="1.01694915" stroke-linecap="round" stroke-linejoin="round"></path>
                <polygon id="Fill-113" fill="#FE737C" points="129 61.5 123 55 117 61.5 117 75 129 75"></polygon>
                <polygon id="Fill-114" fill="#FFFFFF" points="128 61.5 122 55 116 61.5 116 75 128 75"></polygon>
                <polygon id="Fill-115" fill="#FFD8DB" points="122.5 56 118 61.2436984 118 75 127 75 127 61.2436984"></polygon>
                <polygon id="Stroke-116" stroke="#A90433" stroke-width="1.01694915" stroke-linecap="round" stroke-linejoin="round" points="128 61.5 122 55 116 61.5 116 75 128 75"></polygon>
                <path d="M124,59 C124,59.552 123.552,60 123,60 C122.448,60 122,59.552 122,59 C122,58.448 122.448,58 123,58 C123.552,58 124,58.448 124,59" id="Fill-117" fill="#FFFFFF"></path>
                <path d="M123,59 C123,59.552 122.552,60 122,60 C121.448,60 121,59.552 121,59 C121,58.448 121.448,58 122,58 C122.552,58 123,58.448 123,59 Z" id="Stroke-118" stroke="#A90433" stroke-width="1.01694915" stroke-linecap="round" stroke-linejoin="round"></path>
                <path d="M122,47 L122,59" id="Stroke-119" stroke="#A90433" stroke-width="1.01694915" stroke-linecap="round" stroke-linejoin="round"></path>
                <path d="M118,65 L124,65" id="Stroke-120" stroke="#A90433" stroke-width="1.01694915" stroke-linecap="round" stroke-linejoin="round"></path>
                <path d="M118,68 L121,68" id="Stroke-121" stroke="#A90433" stroke-width="1.01694915" stroke-linecap="round" stroke-linejoin="round"></path>
                <path d="M118,72 L126,72" id="Stroke-122" stroke="#A90433" stroke-width="1.01694915" stroke-linecap="round" stroke-linejoin="round"></path>
                <path d="M151,89 L143,89" id="Stroke-123" stroke="#A90433" stroke-width="1.01694915" stroke-linecap="round" stroke-linejoin="round"></path>
                <path d="M141,89 L138,89" id="Stroke-124" stroke="#A90433" stroke-width="1.01694915" stroke-linecap="round" stroke-linejoin="round"></path>
                <path d="M223,83 L230,87" id="Stroke-125" stroke="#A90433" stroke-width="1.01694915" stroke-linecap="round" stroke-linejoin="round"></path>
                <path d="M231.000075,89.7318693 C231.956503,90.2838277 233.179411,89.9563524 233.731869,88.9999246 C234.283828,88.0434967 233.956352,86.820589 232.999925,86.2681307 C232.043497,85.7161723 230.820589,86.0436476 230.268131,87.0000754 C229.716172,87.9565033 230.043648,89.179911 231.000075,89.7318693" id="Fill-126" fill="#FFFFFF"></path>
                <path d="M233.799964,86.0918824 C233.702776,86.0536658 233.600788,86.0280526 233.4994,86 C233.021858,86.1313186 232.598909,86.3610245 232.321742,86.687085 C231.659422,87.4648326 232.052375,88.4592763 233.200036,88.9085242 C233.297224,88.9463342 233.399212,88.972354 233.5006,89 C233.978142,88.8686814 234.400491,88.639382 234.678258,88.3133216 C235.340578,87.5355739 234.947625,86.5407237 233.799964,86.0918824" id="Fill-127" fill="#FFADB2"></path>
                <path d="M231.000075,89.7318693 C231.956503,90.2838277 233.179411,89.9563524 233.731869,88.9999246 C234.283828,88.0434967 233.956352,86.820589 232.999925,86.2681307 C232.043497,85.7161723 230.820589,86.0436476 230.268131,87.0000754 C229.716172,87.9565033 230.043648,89.179911 231.000075,89.7318693 Z" id="Stroke-128" stroke="#A90433" stroke-width="1.01694915" stroke-linecap="round" stroke-linejoin="round"></path>
                <path d="M213,83 L206,87" id="Stroke-129" stroke="#A90433" stroke-width="1.01694915" stroke-linecap="round" stroke-linejoin="round"></path>
                <path d="M203.000075,86.2681307 C202.043648,86.820089 201.716172,88.0434967 202.268131,88.9999246 C202.820589,89.9563524 204.043497,90.2838277 204.999925,89.7318693 C205.956352,89.179411 206.283828,87.9565033 205.731869,87.0000754 C205.179411,86.0436476 203.956503,85.7161723 203.000075,86.2681307" id="Fill-130" fill="#FFFFFF"></path>
                <path d="M205.678258,86.6867715 C205.401091,86.3606668 204.978142,86.1309298 204.5006,86 C204.399212,86.0276498 204.297224,86.0532665 204.200036,86.0914882 C203.052375,86.540797 202.659422,87.5353754 203.321742,88.3132285 C203.599509,88.6393332 204.021858,88.8686636 204.4994,89 C204.600788,88.9723502 204.702776,88.9467335 204.799964,88.9085118 C205.947625,88.459203 206.340578,87.4646246 205.678258,86.6867715" id="Fill-131" fill="#FFD8DB"></path>
                <path d="M203.000075,86.2681307 C202.043648,86.820089 201.716172,88.0434967 202.268131,88.9999246 C202.820589,89.9563524 204.043497,90.2838277 204.999925,89.7318693 C205.956352,89.179411 206.283828,87.9565033 205.731869,87.0000754 C205.179411,86.0436476 203.956503,85.7161723 203.000075,86.2681307 Z" id="Stroke-132" stroke="#A90433" stroke-width="1.01694915" stroke-linecap="round" stroke-linejoin="round"></path>
                <path d="M218,73 L218,65" id="Stroke-133" stroke="#A90433" stroke-width="1.01694915" stroke-linecap="round" stroke-linejoin="round"></path>
                <path d="M220,63 C220,61.8955 219.1045,61 218,61 C216.8955,61 216,61.8955 216,63 C216,64.1045 216.8955,65 218,65 C219.1045,65 220,64.1045 220,63" id="Fill-134" fill="#FFFFFF"></path>
                <path d="M218.5,61 C217.621,61.2406157 217,61.8202809 217,62.5 C217,63.1797191 217.621,63.7593843 218.5,64 C219.379,63.7593843 220,63.1797191 220,62.5 C220,61.8202809 219.379,61.2406157 218.5,61" id="Fill-135" fill="#FE737C"></path>
                <path d="M220,63 C220,61.8955 219.1045,61 218,61 C216.8955,61 216,61.8955 216,63 C216,64.1045 216.8955,65 218,65 C219.1045,65 220,64.1045 220,63 Z" id="Stroke-136" stroke="#A90433" stroke-width="1.01694915" stroke-linecap="round" stroke-linejoin="round"></path>
                <path d="M218.5,83.4729027 C216.285649,83.4729027 214.490311,81.6775348 214.490311,79.4631474 C214.490311,77.24876 216.285649,75.453392 218.5,75.453392 C220.714351,75.453392 222.509689,77.24876 222.509689,79.4631474 C222.509689,81.6775348 220.714351,83.4729027 218.5,83.4729027 L218.5,83.4729027 Z M225.222244,79.8285363 C225.029278,79.6521071 225.029278,79.3483681 225.222244,79.1714377 L226.85519,77.671288 C227.120832,77.4266929 227.002546,76.9851186 226.650696,76.9059259 L224.485965,76.4237528 C224.230848,76.3666138 224.078981,76.1034736 224.15717,75.8543676 L224.821275,73.7382192 C224.929537,73.3943827 224.605754,73.0705949 224.261422,73.1788583 L222.14581,73.8424728 C221.896207,73.9206631 221.633572,73.7692948 221.576434,73.5141741 L221.093768,71.3499087 C221.015078,70.9975514 220.573511,70.8792636 220.32892,71.1444087 L218.828795,72.7773816 C218.651867,72.970351 218.348133,72.970351 218.171205,72.7773816 L216.67108,71.1444087 C216.426489,70.8792636 215.984922,70.9975514 215.906232,71.3499087 L215.423566,73.5141741 C215.366428,73.7692948 215.103793,73.9206631 214.85419,73.8424728 L212.738578,73.1788583 C212.394246,73.0705949 212.070463,73.3943827 212.178725,73.7382192 L212.84283,75.8543676 C212.921019,76.1034736 212.769152,76.3666138 212.514035,76.4237528 L210.349304,76.9059259 C209.997454,76.9851186 209.879168,77.4266929 210.14481,77.671288 L211.777756,79.1714377 C211.970722,79.3483681 211.970722,79.6521071 211.777756,79.8285363 L210.14481,81.3291873 C209.879168,81.5732811 209.997454,82.0153567 210.349304,82.0935469 L212.514035,82.5767224 C212.769152,82.6333602 212.921019,82.8965004 212.84283,83.1461077 L212.178725,85.2617548 C212.070463,85.6060926 212.394246,85.9293791 212.738578,85.8216169 L214.85419,85.1575012 C215.103793,85.079311 215.366428,85.2311804 215.423566,85.4863011 L215.906232,87.6505666 C215.984922,88.0024226 216.426489,88.1207104 216.67108,87.8555653 L218.171205,86.2220912 C218.348133,86.0301242 218.651867,86.0301242 218.828795,86.2220912 L220.32892,87.8555653 C220.573511,88.1207104 221.015078,88.0024226 221.093768,87.6505666 L221.576434,85.4863011 C221.633572,85.2311804 221.896207,85.079311 222.14581,85.1575012 L224.261422,85.8216169 C224.605754,85.9293791 224.929537,85.6060926 224.821275,85.2617548 L224.15717,83.1461077 C224.078981,82.8965004 224.230848,82.6333602 224.485965,82.5767224 L226.650696,82.0935469 C227.002546,82.0153567 227.120832,81.5732811 226.85519,81.3291873 L225.222244,79.8285363 Z" id="Fill-137" fill="#FFFFFF"></path>
                <path d="M219.776251,83.4729027 C219.510256,83.4729027 219.251505,83.4463381 219,83.3997247 C218.748495,83.4463381 218.489744,83.4729027 218.223749,83.4729027 C215.937432,83.4729027 214.083745,81.6775348 214.083745,79.4631474 C214.083745,77.24876 215.937432,75.453392 218.223749,75.453392 C218.489744,75.453392 218.748495,75.4799567 219,75.5265701 C219.251505,75.4799567 219.510256,75.453392 219.776251,75.453392 C222.062568,75.453392 223.916255,77.24876 223.916255,79.4631474 C223.916255,81.6775348 222.062568,83.4729027 219.776251,83.4729027 L219.776251,83.4729027 Z M225.164467,79.8285363 C224.965229,79.6521071 224.965229,79.3483681 225.164467,79.1714377 L226.850484,77.671288 C227.124759,77.4266929 227.002629,76.9851186 226.639343,76.9059259 L224.404258,76.4237528 C224.140851,76.3666138 223.984048,76.1034736 224.064778,75.8543676 L224.750466,73.7382192 C224.780481,73.646496 224.776341,73.5562765 224.750466,73.475079 L223.54055,73.8424728 C223.294737,73.9176557 223.041679,73.7793192 222.967159,73.5447485 L221.988048,73.8424728 C221.730333,73.9206631 221.459163,73.7692948 221.400168,73.5141741 L220.901815,71.3499087 C220.820567,70.9975514 220.364649,70.8792636 220.112109,71.1444087 L218.56323,72.7773816 C218.380552,72.970351 218.066946,72.970351 217.884269,72.7773816 L216.986923,71.8315805 L216.599832,73.5141741 C216.540837,73.7692948 216.269667,73.9206631 216.011952,73.8424728 L215.032841,73.5447485 C214.958321,73.7793192 214.705263,73.9176557 214.45945,73.8424728 L213.249534,73.475079 C213.223659,73.5562765 213.219519,73.646496 213.249534,73.7382192 L213.935222,75.8543676 C214.015952,76.1034736 213.859149,76.3666138 213.595742,76.4237528 L211.360657,76.9059259 C210.997371,76.9851186 210.875241,77.4266929 211.149516,77.671288 L212.835533,79.1714377 C213.034771,79.3483681 213.034771,79.6521071 212.835533,79.8285363 L211.149516,81.3291873 C210.875241,81.5732811 210.997371,82.0153567 211.360657,82.0935469 L213.595742,82.5767224 C213.859149,82.6333602 214.015952,82.8965004 213.935222,83.1461077 L213.249534,85.2617548 C213.219519,85.3539792 213.223659,85.4441987 213.249534,85.5253962 L214.45945,85.1575012 C214.705263,85.0828195 214.958321,85.2206548 215.032841,85.4552255 L216.011952,85.1575012 C216.269667,85.079311 216.540837,85.2311804 216.599832,85.4863011 L216.986923,87.1683935 L217.884269,86.2220912 C218.066946,86.0301242 218.380552,86.0301242 218.56323,86.2220912 L220.112109,87.8555653 C220.364649,88.1207104 220.820567,88.0024226 220.901815,87.6505666 L221.400168,85.4863011 C221.459163,85.2311804 221.730333,85.079311 221.988048,85.1575012 L222.967159,85.4552255 C223.041679,85.2206548 223.294737,85.0828195 223.54055,85.1575012 L224.750466,85.5253962 C224.776341,85.4441987 224.780481,85.3539792 224.750466,85.2617548 L224.064778,83.1461077 C223.984048,82.8965004 224.140851,82.6333602 224.404258,82.5767224 L226.639343,82.0935469 C227.002629,82.0153567 227.124759,81.5732811 226.850484,81.3291873 L225.164467,79.8285363 Z" id="Fill-138" fill="#FFADB2"></path>
                <path d="M218.5,83.4729027 C216.285649,83.4729027 214.490311,81.6775348 214.490311,79.4631474 C214.490311,77.24876 216.285649,75.453392 218.5,75.453392 C220.714351,75.453392 222.509689,77.24876 222.509689,79.4631474 C222.509689,81.6775348 220.714351,83.4729027 218.5,83.4729027 Z M225.222244,79.8285363 C225.029278,79.6521071 225.029278,79.3483681 225.222244,79.1714377 L226.85519,77.671288 C227.120832,77.4266929 227.002546,76.9851186 226.650696,76.9059259 L224.485965,76.4237528 C224.230848,76.3666138 224.078981,76.1034736 224.15717,75.8543676 L224.821275,73.7382192 C224.929537,73.3943827 224.605754,73.0705949 224.261422,73.1788583 L222.14581,73.8424728 C221.896207,73.9206631 221.633572,73.7692948 221.576434,73.5141741 L221.093768,71.3499087 C221.015078,70.9975514 220.573511,70.8792636 220.32892,71.1444087 L218.828795,72.7773816 C218.651867,72.970351 218.348133,72.970351 218.171205,72.7773816 L216.67108,71.1444087 C216.426489,70.8792636 215.984922,70.9975514 215.906232,71.3499087 L215.423566,73.5141741 C215.366428,73.7692948 215.103793,73.9206631 214.85419,73.8424728 L212.738578,73.1788583 C212.394246,73.0705949 212.070463,73.3943827 212.178725,73.7382192 L212.84283,75.8543676 C212.921019,76.1034736 212.769152,76.3666138 212.514035,76.4237528 L210.349304,76.9059259 C209.997454,76.9851186 209.879168,77.4266929 210.14481,77.671288 L211.777756,79.1714377 C211.970722,79.3483681 211.970722,79.6521071 211.777756,79.8285363 L210.14481,81.3291873 C209.879168,81.5732811 209.997454,82.0153567 210.349304,82.0935469 L212.514035,82.5767224 C212.769152,82.6333602 212.921019,82.8965004 212.84283,83.1461077 L212.178725,85.2617548 C212.070463,85.6060926 212.394246,85.9293791 212.738578,85.8216169 L214.85419,85.1575012 C215.103793,85.079311 215.366428,85.2311804 215.423566,85.4863011 L215.906232,87.6505666 C215.984922,88.0024226 216.426489,88.1207104 216.67108,87.8555653 L218.171205,86.2220912 C218.348133,86.0301242 218.651867,86.0301242 218.828795,86.2220912 L220.32892,87.8555653 C220.573511,88.1207104 221.015078,88.0024226 221.093768,87.6505666 L221.576434,85.4863011 C221.633572,85.2311804 221.896207,85.079311 222.14581,85.1575012 L224.261422,85.8216169 C224.605754,85.9293791 224.929537,85.6060926 224.821275,85.2617548 L224.15717,83.1461077 C224.078981,82.8965004 224.230848,82.6333602 224.485965,82.5767224 L226.650696,82.0935469 C227.002546,82.0153567 227.120832,81.5732811 226.85519,81.3291873 L225.222244,79.8285363 Z" id="Stroke-139" stroke="#A90433" stroke-width="1.01694915" stroke-linecap="round" stroke-linejoin="round"></path>
                <path d="M141,17 L143,14" id="Stroke-172" stroke="#A90433" stroke-width="1.01694915" stroke-linecap="round" stroke-linejoin="round"></path>
                <path d="M133,31 L140,18" id="Stroke-173" stroke="#A90433" stroke-width="1.01694915" stroke-linecap="round" stroke-linejoin="round"></path>
                <path d="M100,36 L92,32" id="Stroke-174" stroke="#A90433" stroke-width="1.01694915" stroke-linecap="round" stroke-linejoin="round"></path>
                <path d="M105,40 L102,38" id="Stroke-175" stroke="#A90433" stroke-width="1.01694915" stroke-linecap="round" stroke-linejoin="round"></path>
                <path d="M109.016962,31.0082831 L112,37 M105.363013,23.7457035 L103,19" id="Stroke-176" stroke="#A90433" stroke-width="1.01694915" stroke-linecap="round" stroke-linejoin="round"></path>
                <path d="M144,39 L152,31" id="Stroke-180" stroke="#A90433" stroke-width="1.01694915" stroke-linecap="round" stroke-linejoin="round"></path>
                <path d="M122,26 L122,14" id="Stroke-181" stroke="#A90433" stroke-width="1.01694915" stroke-linecap="round" stroke-linejoin="round"></path>
                <path d="M113,18 L113,10" id="Stroke-182" stroke="#A90433" stroke-width="1.01694915" stroke-linecap="round" stroke-linejoin="round"></path>
                <path d="M131,18 L131,10" id="Stroke-183" stroke="#A90433" stroke-width="1.01694915" stroke-linecap="round" stroke-linejoin="round"></path>
                <path d="M109,27.5 C109,26.6715 108.3285,26 107.5,26 C106.6715,26 106,26.6715 106,27.5 C106,28.3285 106.6715,29 107.5,29 C108.3285,29 109,28.3285 109,27.5" id="Fill-184" fill="#FFFFFF"></path>
                <path d="M109,27.5 C109,26.6715 108.3285,26 107.5,26 C106.6715,26 106,26.6715 106,27.5 C106,28.3285 106.6715,29 107.5,29 C108.3285,29 109,28.3285 109,27.5 Z" id="Stroke-185" stroke="#A90433" stroke-width="1.01694915" stroke-linecap="round" stroke-linejoin="round"></path>
                <path d="M127,31 L129,25" id="Stroke-186" stroke="#A90433" stroke-width="1.01694915" stroke-linecap="round" stroke-linejoin="round"></path>
                <path d="M122,45 L125,38" id="Stroke-187" stroke="#A90433" stroke-width="1.01694915" stroke-linecap="round" stroke-linejoin="round"></path>
                <path d="M127,34.5 C127,33.6715 126.3285,33 125.5,33 C124.6715,33 124,33.6715 124,34.5 C124,35.3285 124.6715,36 125.5,36 C126.3285,36 127,35.3285 127,34.5" id="Fill-188" fill="#FFFFFF"></path>
                <path d="M127,34.5 C127,33.6715 126.3285,33 125.5,33 C124.6715,33 124,33.6715 124,34.5 C124,35.3285 124.6715,36 125.5,36 C126.3285,36 127,35.3285 127,34.5 Z" id="Stroke-189" stroke="#A90433" stroke-width="1.01694915" stroke-linecap="round" stroke-linejoin="round"></path>
                <path d="M174,74 L189,74" id="Stroke-196" stroke="#A90433" stroke-width="1.01694915" stroke-linecap="round" stroke-linejoin="round"></path>
                <path d="M189,69 L195,69" id="Stroke-197" stroke="#A90433" stroke-width="1.01694915" stroke-linecap="round" stroke-linejoin="round"></path>
                <path d="M140,49 C139.680851,48.5119048 139.338906,47.8348214 139,47" id="Stroke-198" stroke="#A90433" stroke-width="1.01694915" stroke-linecap="round" stroke-linejoin="round"></path>
                <path d="M139.617833,43 C138.519257,38.0026557 138.425482,30.1815445 143.274037,24.1898228 C152.179102,13.1839547 164.374853,14.8936931 168.306835,20.2016212 C173.425118,27.110838 165.525861,33.6274972 160.407579,27.5599116 C155.47987,21.7183903 161.328184,0.0946293303 186,6.01710609" id="Stroke-199" stroke="#A90433" stroke-width="1.01694915" stroke-linecap="round" stroke-linejoin="round" stroke-dasharray="3.095084731861696,3.095084731861696"></path>
                <path d="M42,69 L42,73.5 C42,75.9855 44.0689459,78 46.6216216,78 L61,78" id="Stroke-206" stroke="#A90433" stroke-width="1.01694915" stroke-linecap="round" stroke-linejoin="round"></path>
                <path d="M62,73 L62,68.5 C62,66.0145 59.9310541,64 57.3783784,64 L43,64" id="Stroke-207" stroke="#A90433" stroke-width="1.01694915" stroke-linecap="round" stroke-linejoin="round"></path>
                <polyline id="Stroke-208" stroke="#A90433" stroke-width="1.01694915" stroke-linecap="round" stroke-linejoin="round" points="58 75 61 78 58 81"></polyline>
                <polyline id="Stroke-209" stroke="#A90433" stroke-width="1.01694915" stroke-linecap="round" stroke-linejoin="round" points="46 67 43 64 46 61"></polyline>
                <path d="M163,19 C163,19.552 162.552,20 162,20 C161.448,20 161,19.552 161,19 C161,18.448 161.448,18 162,18 C162.552,18 163,18.448 163,19" id="Fill-190" fill="#FFFFFF"></path>
                <path d="M163,19 C163,19.552 162.552,20 162,20 C161.448,20 161,19.552 161,19 C161,18.448 161.448,18 162,18 C162.552,18 163,18.448 163,19 Z" id="Stroke-191" stroke="#A90433" stroke-width="1.01694915" stroke-linecap="round" stroke-linejoin="round"></path>
                <path d="M188,7 C188.657183,7.259 189.32408,7.538 190,7.838" id="Stroke-200" stroke="#A90433" stroke-width="1.01694915" stroke-linecap="round" stroke-linejoin="round"></path>
                <polygon id="Fill-201" fill="#FFFFFF" points="183 13 189.114445 7.84623431 187.304325 0 201 11.8838912"></polygon>
                <polygon id="Fill-202" fill="#FFADB2" points="201 12.0590444 190.678624 3 191.826518 8.03181723 186 13"></polygon>
                <polygon id="Stroke-203" stroke="#A90433" stroke-width="1.01694915" stroke-linecap="round" stroke-linejoin="round" points="183 13 189.114445 7.84623431 187.304325 0 201 11.8838912"></polygon>
                <path d="M249,44 C249,45.1045 248.1045,46 247,46 C245.8955,46 245,45.1045 245,44 C245,42.8955 245.8955,42 247,42 C248.1045,42 249,42.8955 249,44 Z" id="Stroke-17" stroke="#A90433" stroke-width="1.01694915" stroke-linecap="round" stroke-linejoin="round"></path>
                <path d="M6,23 C6,24.6565455 4.65654545,26 3,26 C1.34345455,26 0,24.6565455 0,23 C0,21.3434545 1.34345455,20 3,20 C4.65654545,20 6,21.3434545 6,23" id="Fill-47" fill="#FFFFFF"></path>
                <path d="M1,18 L1,20" id="Stroke-65" stroke="#A90433" stroke-width="1.01694915" stroke-linecap="round" stroke-linejoin="round"></path>
                <path d="M1,23 L1,25" id="Stroke-67" stroke="#A90433" stroke-width="1.01694915" stroke-linecap="round" stroke-linejoin="round"></path>
                <path d="M198,64 L196,64" id="Stroke-69" stroke="#A90433" stroke-width="1.01694915" stroke-linecap="round" stroke-linejoin="round"></path>
                <path d="M5,21 L3,21" id="Stroke-71" stroke="#A90433" stroke-width="1.01694915" stroke-linecap="round" stroke-linejoin="round"></path>
                <path d="M3,19 L2,20" id="Stroke-73" stroke="#A90433" stroke-width="1.01694915" stroke-linecap="round" stroke-linejoin="round"></path>
                <path d="M198,65 L197,66" id="Stroke-75" stroke="#A90433" stroke-width="1.01694915" stroke-linecap="round" stroke-linejoin="round"></path>
                <path d="M198,64 L197,63" id="Stroke-77" stroke="#A90433" stroke-width="1.01694915" stroke-linecap="round" stroke-linejoin="round"></path>
                <path d="M3,23 L2,22" id="Stroke-79" stroke="#A90433" stroke-width="1.01694915" stroke-linecap="round" stroke-linejoin="round"></path>
                <path d="M236,39 L235,40" id="Stroke-81" stroke="#A90433" stroke-width="1.01694915" stroke-linecap="round" stroke-linejoin="round"></path>
                <path d="M233,42 L232,43" id="Stroke-83" stroke="#A90433" stroke-width="1.01694915" stroke-linecap="round" stroke-linejoin="round"></path>
                <path d="M233,40 L232,39" id="Stroke-85" stroke="#A90433" stroke-width="1.01694915" stroke-linecap="round" stroke-linejoin="round"></path>
                <path d="M236,43 L235,42" id="Stroke-87" stroke="#A90433" stroke-width="1.01694915" stroke-linecap="round" stroke-linejoin="round"></path>
                <polygon id="Stroke-21" stroke="#FFADB2" stroke-width="1.01694915" stroke-linecap="round" stroke-linejoin="round" points="7 81 5 84 9 84"></polygon>
                <path d="M27,56 C27,57.6565455 25.6565455,59 24,59 C22.3434545,59 21,57.6565455 21,56 C21,54.3434545 22.3434545,53 24,53 C25.6565455,53 27,54.3434545 27,56" id="Fill-27" fill="#FFD8DB"></path>
                <path d="M22,52 L22,54" id="Stroke-29" stroke="#A90433" stroke-width="1.01694915" stroke-linecap="round" stroke-linejoin="round"></path>
                <path d="M22,56 L22,58" id="Stroke-31" stroke="#A90433" stroke-width="1.01694915" stroke-linecap="round" stroke-linejoin="round"></path>
                <path d="M21,54 L19,54" id="Stroke-33" stroke="#A90433" stroke-width="1.01694915" stroke-linecap="round" stroke-linejoin="round"></path>
                <path d="M25,54 L23,54" id="Stroke-35" stroke="#A90433" stroke-width="1.01694915" stroke-linecap="round" stroke-linejoin="round"></path>
                <path d="M24,53 L23,54" id="Stroke-37" stroke="#A90433" stroke-width="1.01694915" stroke-linecap="round" stroke-linejoin="round"></path>
                <path d="M21,56 L20,57" id="Stroke-39" stroke="#A90433" stroke-width="1.01694915" stroke-linecap="round" stroke-linejoin="round"></path>
                <path d="M21,54 L20,53" id="Stroke-41" stroke="#A90433" stroke-width="1.01694915" stroke-linecap="round" stroke-linejoin="round"></path>
                <path d="M24,57 L23,56" id="Stroke-43" stroke="#A90433" stroke-width="1.01694915" stroke-linecap="round" stroke-linejoin="round"></path>
                <path d="M28,87 C28,88.6565455 26.6565455,90 25,90 C23.3434545,90 22,88.6565455 22,87 C22,85.3434545 23.3434545,84 25,84 C26.6565455,84 28,85.3434545 28,87" id="Fill-45" fill="#FFD8DB"></path>
                <path d="M28.4285714,75.4615385 L31,75.4615385 M24.3142857,75.4615385 L17.6285714,75.4615385 C16.78,75.4615385 16.0857143,74.7346154 16.0857143,73.8461538 C16.0857143,72.9576923 16.78,72.2307692 17.6285714,72.2307692 L18.6571429,72.2307692 C19.5052,72.2307692 20.2,71.5038462 20.2,70.6153846 C20.2,69.7269231 19.5052,69 18.6571429,69 L13,69" id="Stroke-171" stroke="#A90433" stroke-width="1.01694915" stroke-linecap="round" stroke-linejoin="round"></path>
                <path d="M36,80.5 C36,81.3286 35.3286,82 34.5,82 C33.6714,82 33,81.3286 33,80.5 C33,79.6714 33.6714,79 34.5,79 C35.3286,79 36,79.6714 36,80.5" id="Fill-192" fill="#FFFFFF"></path>
                <path d="M36,80.5 C36,81.3286 35.3286,82 34.5,82 C33.6714,82 33,81.3286 33,80.5 C33,79.6714 33.6714,79 34.5,79 C35.3286,79 36,79.6714 36,80.5 Z" id="Stroke-193" stroke="#A90433" stroke-width="1.01694915" stroke-linecap="round" stroke-linejoin="round"></path>
                <path d="M50,68.5 C50,69.3285 49.3285,70 48.5,70 C47.6715,70 47,69.3285 47,68.5 C47,67.6715 47.6715,67 48.5,67 C49.3285,67 50,67.6715 50,68.5" id="Fill-194" fill="#FFFFFF"></path>
                <path d="M50,68.5 C50,69.3285 49.3285,70 48.5,70 C47.6715,70 47,69.3285 47,68.5 C47,67.6715 47.6715,67 48.5,67 C49.3285,67 50,67.6715 50,68.5 Z" id="Stroke-195" stroke="#A90433" stroke-width="1.01694915" stroke-linecap="round" stroke-linejoin="round"></path>
            </g>
        </g>
    </g>
</svg>