<?xml version="1.0" encoding="UTF-8"?>
<svg width="252px" height="294px" viewBox="0 0 252 294" version="1.1" xmlns="http://www.w3.org/2000/svg" xmlns:xlink="http://www.w3.org/1999/xlink">
    <!-- Generator: Sketch 56.3 (81716) - https://sketch.com -->
    <title>404</title>
    <desc>Created with Sketch.</desc>
    <g id="页面-1" stroke="none" stroke-width="1" fill="none" fill-rule="evenodd">
        <g id="画板">
            <g id="404">
                <g id="编组" transform="translate(0.000000, 0.012000)" fill="#F6E5EA" fill-rule="nonzero">
                    <path d="M0,127.32 L0,125.225 C0,56.279 55.892,0.387 124.838,0.387 L126.934,0.387 C195.88,0.387 251.772,56.279 251.772,125.225 L251.772,127.321 C251.772,196.267 195.88,252.159 126.934,252.159 L124.838,252.159 C55.892,252.159 0,196.267 0,127.321" id="路径"></path>
                </g>
                <path d="M39.755,130.84 C39.4808907,133.800084 37.6402432,136.385751 34.9329898,137.613764 C32.2257365,138.841777 29.0678371,138.523456 26.6601278,136.779847 C24.2524186,135.036238 22.9648354,132.13524 23.287,129.18 C23.7794968,124.66229 27.8227232,121.38684 32.3442846,121.84262 C36.865846,122.298401 40.174034,126.314885 39.755,130.84" id="路径" fill="#FFFFFF" fill-rule="nonzero"></path>
                <path d="M36.975,134.297 L47.457,140.24 M48.373,146.508 L35.725,157.296" id="形状" stroke="#FFFFFF" stroke-width="2"></path>
                <path d="M39.875,159.352 C39.5613023,162.466058 36.7825576,164.736198 33.6685,164.4225 C30.5544424,164.108802 28.2843023,161.330058 28.598,158.216 C28.8009269,156.201558 30.063131,154.448397 31.9091524,153.616916 C33.7551738,152.785435 35.9045579,153.001955 37.5476524,154.184916 C39.190747,155.367877 40.0779269,157.337558 39.875,159.352 M57.588,143.247 C57.4000356,145.289475 56.1306595,147.074066 54.2628933,147.921701 C52.3951271,148.769337 50.2161759,148.549677 48.5551716,147.346306 C46.8941673,146.142935 46.0065214,144.140895 46.23,142.102 C46.5713633,138.98759 49.3592772,136.73045 52.4765401,137.044701 C55.5938029,137.358952 57.8751155,140.127121 57.588,143.247 M99.018,26.8750002 L128.838,26.861 C130.476956,26.8604641 131.991128,25.9855964 132.810142,24.565951 C133.629155,23.1463056 133.628584,21.3975604 132.808642,19.9784509 C131.9887,18.5593414 130.473956,17.6854641 128.835,17.6859998 L99.015,17.699 C97.3758655,17.6995359 95.8615286,18.5744989 95.0424254,19.994299 C94.2233222,21.4140991 94.223894,23.1630349 95.0439254,24.5822991 C95.8639568,26.0015633 97.3788655,26.8755359 99.018,26.8750002 M110.424,45.2110004 L140.244,45.198 C142.751192,45.159905 144.763389,43.1160109 144.762297,40.6085293 C144.761203,38.1010477 142.747225,36.0589089 140.24,36.023 L110.42,36.036 C108.781044,36.0367145 107.266968,36.9117473 106.448108,38.331482 C105.629249,39.7512167 105.630012,41.4999619 106.450108,42.9189821 C107.270205,44.3380023 108.785044,45.2117146 110.424,45.2110004" id="形状" fill="#FFFFFF" fill-rule="nonzero"></path>
                <path d="M112.798,26.861 L112.798,26.859 L128.582,26.853 C126.926898,26.8291103 125.38725,27.6986038 124.553037,29.1282969 C123.718825,30.55799 123.719403,32.3261911 124.55455,33.7553384 C125.389698,35.1844856 126.929914,36.0529721 128.585,36.028 L112.802,36.035 L112.802,36.033 C115.334778,36.0318954 117.387104,33.9777778 117.386,31.445 C117.384895,28.9122222 115.330778,26.8598955 112.798,26.861 M184.523,135.668 C183.97,141.153 179.076,145.151 173.592,144.598 C168.107,144.045 164.109,139.15 164.662,133.666 C165.214,128.181 170.109,124.183 175.594,124.736 C181.079,125.289 185.077,130.183 184.524,135.668" id="形状" fill="#FFFFFF" fill-rule="nonzero"></path>
                <path d="M179.26,141.75 L191.9,148.917 M193.006,156.477 L177.751,169.488" id="形状" stroke="#FFFFFF" stroke-width="2"></path>
                <path d="M184.668,170.057 C184.45014,172.508652 182.930948,174.653836 180.690659,175.673231 C178.450369,176.692625 175.835002,176.428781 173.843459,174.982469 C171.851916,173.536158 170.791797,171.130767 171.068,168.685 C171.488043,164.965534 174.821671,162.275818 178.545876,162.651525 C182.270082,163.027232 184.999317,166.328583 184.668,170.057 M203.34,153.325 C203.112125,155.787825 201.580733,157.939179 199.328258,158.960839 C197.075783,159.982499 194.448381,159.717457 192.445331,158.266517 C190.442282,156.815578 189.37141,154.401718 189.64,151.943 C190.050513,148.185099 193.414139,145.461023 197.175307,145.840434 C200.936475,146.219845 203.688284,149.560822 203.34,153.325" id="形状" fill="#FFFFFF" fill-rule="nonzero"></path>
                <path d="M151.931,192.324 C151.931,193.551177 150.936177,194.546 149.709,194.546 C148.481823,194.546 147.487,193.551177 147.487,192.324 C147.487,191.096823 148.481823,190.102 149.709,190.102 C150.936177,190.102 151.931,191.096823 151.931,192.324 L151.931,192.324 Z M225.27,116.056 C225.27,117.283453 224.274953,118.2785 223.0475,118.2785 C221.820047,118.2785 220.825,117.283453 220.825,116.056 C220.825,114.828823 221.819823,113.834 223.047,113.834 C224.274177,113.834 225.269,114.828823 225.269,116.056 L225.27,116.056 Z M216.38,151.08 C216.379821,151.874201 215.955955,152.607978 215.268067,153.004924 C214.580179,153.40187 213.732776,153.40168 213.045067,153.004424 C212.357358,152.607169 211.933821,151.873201 211.934,151.079 C211.934,149.851271 212.929271,148.856 214.157,148.856 C215.384729,148.856 216.38,149.851271 216.38,151.079 L216.38,151.08 Z M176.917,107.636 C176.934082,108.441261 176.514252,109.192772 175.819583,109.600414 C175.124914,110.008057 174.264086,110.008057 173.569417,109.600414 C172.874748,109.192772 172.454918,108.441261 172.472,107.636 C172.497648,106.426916 173.485144,105.460146 174.6945,105.460146 C175.903856,105.460146 176.891352,106.426916 176.917,107.636 L176.917,107.636 Z M195.291,92.165 C195.308082,92.9702609 194.888252,93.7217718 194.193583,94.1294142 C193.498914,94.5370567 192.638086,94.5370567 191.943417,94.1294142 C191.248748,93.7217718 190.828918,92.9702609 190.846,92.165 C190.871648,90.9559159 191.859144,89.989146 193.0685,89.989146 C194.277856,89.989146 195.265352,90.9559159 195.291,92.165 L195.291,92.165 Z M202.058,180.711 C202.058,181.938729 201.062729,182.934 199.835,182.934 C198.607271,182.934 197.612,181.938729 197.612,180.711 C197.612,179.483271 198.607271,178.488 199.835,178.488 C201.062729,178.488 202.058,179.483271 202.058,180.711 Z" id="形状" stroke="#FFFFFF" stroke-width="2"></path>
                <path d="M214.404,153.302 L212.492,173.486 L201.564,179.476 M173.661,174.792 L167.305,184.606 L155.945,184.606 L151.437,191.09 M174.941,125.168 L174.941,109.364 M220.824,117.25 L207.984,125.151 L192.674,117.249 L192.674,94.39" id="形状" stroke="#FFFFFF" stroke-width="2"></path>
                <path d="M166.588,65.936 L162.637,65.936 C160.020867,65.9288604 157.901691,63.8101319 157.894,61.194 C157.901142,58.5774776 160.020478,56.4581423 162.637,56.451 L166.588,56.451 C169.204522,56.4581423 171.323858,58.5774776 171.331,61.194 C171.323309,63.8101319 169.204133,65.9288604 166.588,65.936" id="路径" fill="#FFFFFF" fill-rule="nonzero"></path>
                <path d="M174.823,30.03 C174.823,13.749 188.021,0.55 204.303,0.55 C220.583,0.55 233.783,13.749 233.783,30.03 C233.783,46.31 220.583,59.51 204.303,59.51 C188.021,59.51 174.823,46.31 174.823,30.03" id="路径" fill="#A90433" fill-rule="nonzero"></path>
                <path d="M205.952,38.387 C206.452,38.887 206.737,39.529 206.737,40.315 C206.737,41.101 206.451,41.78 205.952,42.279 C205.38,42.779 204.738,43.029 203.952,43.029 C203.167,43.029 202.523,42.744 202.023,42.244 C201.451,41.744 201.203,41.101 201.203,40.315 C201.203,39.529 201.451,38.887 202.023,38.387 C202.523,37.887 203.167,37.637 203.953,37.637 C204.738,37.637 205.415,37.887 205.952,38.387 M210.237,18.924 C211.665,20.173 212.38,21.887 212.38,24.066 C212.38,25.778 211.953,27.196 211.161,28.316 C211.094,28.412 211.024,28.496 210.943,28.581 C210.527,29.01 209.533,29.927 207.987,31.28 C207.385465,31.7485339 206.897353,32.3467097 206.559,33.03 C206.197922,33.7627457 206.014309,34.570166 206.023,35.387 L206.023,35.887 L201.916,35.887 L201.916,35.387 C201.916,34.03 202.131,32.851 202.63,31.887 C203.094,30.923 204.487,29.423 206.808,27.351 L207.238,26.851 C207.881,26.066 208.202,25.208 208.202,24.316 C208.202,23.136 207.844,22.208 207.202,21.531 C206.524,20.851 205.559,20.53 204.344,20.53 C202.808,20.53 201.702,20.994 200.987,21.96 C200.617,22.46 200.366,23.095 200.227,23.864 C200.049037,24.811546 199.220108,25.4970629 198.256,25.494 L198.252,25.494 C196.975,25.494 195.995,24.311 196.272,23.064 C196.609,21.546 197.292,20.284 198.345,19.28 C199.881,17.78 201.952,17.03 204.595,17.03 C206.915,17.03 208.809,17.637 210.237,18.924" id="形状" fill="#FFFFFF" fill-rule="nonzero"></path>
                <path d="M52.04,76.131 C52.04,76.131 73.85,81.491 79.347,92.076 C84.922,102.816 72.995,101.336 63.617,97.011 C52.757,92.003 38.917,85.189 52.04,76.131" id="路径" fill="#FFB594" fill-rule="nonzero"></path>
                <path d="M90.483,67.504 L90.034,70.397 C89.281,70.887 85.286,67.734 85.286,67.734 L83.641,68.482 L82.295,62.798 C82.295,62.798 89.11,58.209 91.212,57.78 C93.664,57.279 101.096,58.72 101.912,60.058 C101.912,60.058 103.232,60.544 99.685,60.748 C96.137,60.951 94.642,61.195 92.895,63.88 C91.148,66.566 90.483,67.504 90.483,67.504" id="路径" fill="#FFC6A0" fill-rule="nonzero"></path>
                <path d="M128.055,111.367 C125.428,103.643 121.905,98.187 119.138,95.889 C115.638,92.983 109.798,93.664 107.772,91.702 C106.502,90.471 104.557,90.505 104.557,90.505 C104.557,90.505 89.577,87.347 87.729,87.026 C85.359,86.616 85.605,86.312 81.675,85.621 C80.105,83.714 78.758,84.499 78.758,84.499 L71.648,83.116 C70.795,81.644 69.225,82.093 69.225,82.093 L66.757,81.196 C65.112,91.172 59.017,94.992 59.017,94.992 C60.812,96.114 74.72,103.292 74.72,103.292 L79.827,140.402 C79.827,140.402 76.506,146.096 81.173,149.511 C81.173,149.511 101.056,145.768 116.094,149.182 C116.094,149.182 119.141,146.636 117.066,140.376 C117.589,137.366 118.46,132.113 118.802,128.754 C119.187,129.526 120.821,130.672 121.942,132.231 C121.942,132.231 131.349,124.866 132.994,118.219 C132.162,117.496 131.396,116.634 130.727,115.766 C130.16,115.03 130.369,113.71 129.962,113.049 C129.293,111.965 128.158,111.671 128.055,111.367" id="路径" fill="#FFFFFF" fill-rule="nonzero"></path>
                <path d="M101.09,289.998 C101.09,289.998 105.385,292.039 108.444,291.019 C111.265,290.079 112.974,291.687 115.524,292.197 C118.074,292.707 122.398,293.297 127.21,290.937 C127.107,285.427 120.321,286.957 115.25,284.224 C112.687,282.844 111.466,279.502 111.652,275.425 L102.25,275.425 C102.25,275.425 100.858,285.945 101.09,289.998" id="路径" fill="#CBD1D1" fill-rule="nonzero"></path>
                <path d="M101.067,289.826 C101.067,289.826 103.495,291.097 107.826,290.479 C110.884,290.042 111.538,290.96 115.249,291.51 C118.961,292.06 125.973,291.441 127.072,290.616 C127.485,291.716 126.729,292.679 126.729,292.679 C126.729,292.679 125.217,293.282 121.917,293.503 C119.887,293.639 116.117,293.794 114.31,293 C112.523,291.625 109.063,291.097 108.582,292.759 C104.664,293.709 101.227,292.473 101.227,292.473 L101.067,289.826 L101.067,289.826 Z" id="路径" fill="#2B0849" fill-rule="nonzero"></path>
                <path d="M108.341,276.044 L111.435,276.044 C111.435,276.044 111.332,282.746 115.971,284.602 C111.331,285.22 107.413,282.299 108.341,276.044" id="路径" fill="#A4AABA" fill-rule="nonzero"></path>
                <path d="M57.542,272.401 C57.542,272.401 55.435,279.817 53.057,284.707 C51.259,288.402 48.832,292.199 58.522,292.199 C65.17,292.199 67.475,291.719 65.945,285.6 C64.415,279.48 66.211,272.401 66.211,272.401 L57.542,272.401 L57.542,272.401 Z" id="路径" fill="#CBD1D1" fill-rule="nonzero"></path>
                <path d="M51.476,289.793 C51.476,289.793 53.573,290.962 58.109,290.962 C64.192,290.962 66.358,289.312 66.358,289.312 C66.358,289.312 66.96,290.426 65.739,291.477 C64.746,292.332 62.142,293.068 58.349,293.023 C54.204,292.975 52.517,292.457 51.613,291.855 C50.788,291.305 50.926,290.275 51.476,289.793" id="路径" fill="#2B0849" fill-rule="nonzero"></path>
                <path d="M58.419,274.304 C58.419,274.304 58.452,275.823 58.105,277.234 C57.756,278.654 57.027,280.338 56.975,281.373 C56.917,282.524 61.512,282.953 62.13,281.407 C62.75,279.86 63.424,274.98 64.043,274.155 C64.662,273.33 59.14,272.036 58.419,274.305" id="路径" fill="#A4AABA" fill-rule="nonzero"></path>
                <path d="M99.66,278.514 L113.038,278.606 C113.038,278.606 114.336,224.086 114.891,214.203 C115.445,204.321 118.667,170.839 115.893,151.075 L103.346,150.431 L80.497,151.211 C80.497,151.211 80.063,155.177 79.302,161.187 C79.239,161.683 78.62,162.03 78.553,162.552 C78.478,163.137 78.976,163.906 78.873,164.518 C76.509,178.598 72.496,197.622 70.129,211.195 C70.013,211.861 68.895,212.204 68.671,213.886 C68.631,214.188 68.882,215.411 68.783,215.681 C61.91,234.425 57.834,263.523 54.506,277.566 L69.113,277.552 C69.113,277.552 71.31,268.982 73.143,260.582 C75.954,247.696 96.254,175.572 96.254,175.572 L99.27,175.051 L100.313,221.401 C100.313,221.401 100.089,222.635 100.65,223.421 C101.21,224.206 100.09,224.544 100.258,225.665 L100.65,227.459 C100.65,227.459 100.201,234.637 99.752,239.349 C99.304,244.059 99.66,278.514 99.66,278.514" id="路径" fill="#7BB2F9" fill-rule="nonzero"></path>
                <path d="M76.085,221.626 C77.238,221.72 80.123,219.607 83.04,216.691 M106.36,225.142 C106.36,225.142 109.134,224.032 112.463,221.259" id="形状" stroke="#648BD8" stroke-width="1.051" stroke-linecap="round" stroke-linejoin="round"></path>
                <path d="M107.275,222.1 C107.275,222.1 110.048,220.99 113.377,218.216" id="路径" stroke="#648BD8" stroke-linecap="round" stroke-linejoin="round"></path>
                <path d="M74.74,224.767 C74.74,224.767 77.362,224.176 81.245,221.402 M86.03,151.634 C85.76,154.74 86.33,160.159 81.694,160.757 M103.625,149.88 C103.625,149.88 103.735,163.892 102.332,164.945 C100.113,166.609 99.342,166.889 99.342,166.889 M99.79,150.438 C99.79,150.438 99.825,163.318 98.594,174.815 M93.673,175.911 C93.673,175.911 100.885,174.247 103.104,174.247 M74.31,205.861 C74.0003957,207.384544 73.6740426,208.904635 73.331,210.421 C73.331,210.421 71.873,212.253 72.322,214.197 C72.771,216.141 71.375,216.242 67.337,229.552 C65.641,235.142 62.847,248.143 60.989,257.149 L60.758,258.269 M75.689,197.807 C75.4069415,199.393859 75.1129331,200.978571 74.807,202.561 M82.591,152.233 L81.395,162.7 C81.395,162.7 80.298,162.85 80.895,164.944 C81.008,166.29 78.221,180.719 75.715,195.374 M56.12,274.418 L69.43,274.418" id="形状" stroke="#648BD8" stroke-width="1.051" stroke-linecap="round" stroke-linejoin="round"></path>
                <path d="M116.241,148.22 C116.241,148.22 99.194,145.116 80.348,148.42 C80.506,150.934 80.345,152.57 80.345,152.57 C80.345,152.57 95.032,149.752 116.015,152.258 C116.267,149.903 116.241,148.22 116.241,148.22" id="路径" fill="#192064" fill-rule="nonzero"></path>
                <path d="M106.322,151.165 L106.32502,146.254 C106.328039,145.816919 105.983751,145.456257 105.547,145.439 C103.107,145.348 100.481,145.331 97.711,145.425 C97.2717558,145.44058 96.9233357,145.800482 96.922,146.24 L96.9189934,151.146 C96.9181151,151.365034 97.005974,151.575089 97.1625419,151.728265 C97.3191098,151.881442 97.5310381,151.96468 97.75,151.959 C100.135,151.899 102.723,151.895 105.48,151.976 C105.699926,151.983293 105.913455,151.901346 106.072036,151.748793 C106.230616,151.596239 106.320771,151.386043 106.322,151.166" id="路径" fill="#FFFFFF" fill-rule="nonzero"></path>
                <path d="M105.207,150.233 L105.209015,147.157 C105.211387,146.809675 104.93711,146.523435 104.59,146.511 C102.635243,146.44685 100.678964,146.443515 98.724,146.501 C98.3740099,146.511771 98.0954504,146.797847 98.0939865,147.148 L98.0939865,150.22 C98.092878,150.392885 98.1617491,150.558869 98.284938,150.680175 C98.4081269,150.80148 98.5751528,150.867786 98.748,150.864 C100.679145,150.821465 102.611031,150.825133 104.542,150.875 C104.904,150.885 105.207,150.595 105.207,150.233" id="路径" fill="#192064" fill-rule="nonzero"></path>
                <path d="M100.263,275.415 L112.601,275.415 M101.436,270.53 C101.442,273.917 101.478,276.32 101.547,277.036 M101.451,264.548 C101.442577,265.993653 101.437577,267.439324 101.436,268.885 M100.986,174.965 L101.884,219.607 C101.884,219.607 102.557,221.177 101.659,222.299 C100.762,223.421 104.127,222.972 102.557,224.542 C100.987,226.112 103.454,225.664 102.557,227.907 C101.961,229.396 101.563,249.007 101.461,263.053" id="形状" stroke="#648BD8" stroke-width="1.051" stroke-linecap="round" stroke-linejoin="round"></path>
                <path d="M46.876,83.427 C46.876,83.427 46.36,89.472 54.099,88.979 C65.299,88.267 63.317,79.634 85.639,67.324 C84.853,64.616 83.192,62.58 83.192,62.58 C83.192,62.58 72.124,65.69 60.608,70.626 C53.842,73.526 47.213,76.978 46.876,83.427 M104.46,91.057 L105.401,85.685 L96.517,74.255 L91.48,79.627 L89.74,87.461 C89.7124417,87.5795147 89.7542608,87.7034232 89.848,87.781 C90.813,88.581 96.348,92.794 104.195,91.325 C104.330005,91.2989519 104.434985,91.1923815 104.459,91.057" id="形状" fill="#FFC6A0" fill-rule="nonzero"></path>
                <path d="M93.942,79.387 C93.942,79.387 89.409,76.534 91.51,72.532 C93.133,69.442 96.023,73.665 96.023,73.665 C96.023,73.665 96.543,70.023 99.144,70.023 C99.664,68.983 100.705,65.861 100.705,65.861 C100.705,65.861 112.15,68.462 114.231,68.982 C114.231,74.185 111.927,88.406 106.391,88.843 C97.499,89.546 93.942,79.387 93.942,79.387" id="路径" fill="#FFC6A0" fill-rule="nonzero"></path>
                <path d="M113.874,73.446 C116.475,71.365 117.344,63.724 117.344,63.724 C117.344,63.724 114.865,63.234 110.704,61.674 C106.021,59.593 97.906,56.927 93.224,62.65 C83.556,65.873 91.174,82.473 91.174,82.473 L93.887,79.452 C93.887,79.452 89.952,76.165 91.807,73.209 C93.977,69.747 95.727,74.282 95.727,74.282 C95.727,74.282 96.364,71.895 99.308,70.94 C99.663,70.23 100.344,68.266 100.74,67.09 C100.915937,66.5643109 101.463353,66.2591796 102.003,66.386 C104.403,66.944 110.68,68.405 113.359,69.048 C113.881,69.173 114.23,69.663 114.179,70.198 L113.874,73.446 L113.874,73.446 Z" id="路径" fill="#520038" fill-rule="nonzero"></path>
                <path d="M104.977,76.064 C104.874,76.674 104.395,77.102 103.907,77.02 C103.418,76.937 103.106,76.376 103.209,75.766 C103.312,75.156 103.791,74.728 104.279,74.81 C104.767,74.892 105.079,75.454 104.977,76.064 M112.132,77.694 C112.029,78.304 111.55,78.732 111.062,78.65 C110.574,78.567 110.262,78.006 110.364,77.396 C110.467,76.786 110.946,76.358 111.434,76.44 C111.922,76.522 112.234,77.083 112.132,77.694" id="形状" fill="#552950" fill-rule="nonzero"></path>
                <polyline id="路径" stroke="#DB836E" stroke-width="1.118" stroke-linecap="round" stroke-linejoin="round" points="110.13 74.84 109.234 76.45 108.936 80.807 106.708 80.807"></polyline>
                <path d="M110.846,74.481 C110.846,74.481 112.636,73.765 113.352,75.018" id="路径" stroke="#5C2552" stroke-width="1.118" stroke-linecap="round" stroke-linejoin="round"></path>
                <path d="M92.386,74.282 C92.386,74.282 92.863,73.168 93.499,73.566 C94.136,73.964 94.773,74.999 94.057,75.556 C93.34,76.112 94.216,77.226 94.216,77.226" id="路径" stroke="#DB836E" stroke-width="1.118" stroke-linecap="round" stroke-linejoin="round"></path>
                <path d="M103.287,72.93 C103.287,72.93 105.117,74.043 107.424,73.884" id="路径" stroke="#5C2552" stroke-width="1.118" stroke-linecap="round" stroke-linejoin="round"></path>
                <path d="M103.685,81.762 C103.685,81.762 105.912,82.955 108.061,82.955 M104.64,84.308 C104.64,84.308 105.594,84.706 106.151,84.626 M94.693,81.205 C94.693,81.205 97.001,88.605 105.117,88.844" id="形状" stroke="#DB836E" stroke-width="1.118" stroke-linecap="round" stroke-linejoin="round"></path>
                <path d="M81.45,89.384 C81.45,89.384 81.9,95.031 76.515,102.171 M69,82.654 C69,82.654 68.274,91.936 60.796,96.86" id="形状" stroke="#E4EBF7" stroke-width="1.101" stroke-linecap="round" stroke-linejoin="round"></path>
                <path d="M129.405,122.865 C129.405,122.865 124.133,130.268 119.983,133.633" id="路径" stroke="#E4EBF7" stroke-width="1.051" stroke-linecap="round" stroke-linejoin="round"></path>
                <path d="M119.306,107.329 C119.306,107.329 119.758,111.695 117.179,139.391" id="路径" stroke="#E4EBF7" stroke-width="1.101" stroke-linecap="round" stroke-linejoin="round"></path>
                <path d="M150.028,151.232 L100.191,151.232 C99.6331924,151.232 99.181,150.779808 99.181,150.222 L99.181,118.534 C99.181,117.977 99.633,117.524 100.191,117.524 L150.028,117.524 C150.586,117.524 151.038,117.977 151.038,118.534 L151.038,150.222 C151.038,150.779808 150.585808,151.232 150.028,151.232" id="路径" fill="#F2D7AD" fill-rule="nonzero"></path>
                <path d="M150.29,151.232 L130.427,151.232 L130.427,117.525 L151.211,117.525 L151.211,150.311 C151.211,150.819102 150.799102,151.231 150.291,151.231" id="路径" fill="#F4D19D" fill-rule="nonzero"></path>
                <path d="M123.554,127.896002 L92.917,127.896002 C92.7234087,127.896487 92.5457021,127.788983 92.4562754,127.617284 C92.3668486,127.445584 92.380628,127.238348 92.492,127.08 L98.872,117.967 C99.065,117.69 99.382,117.525 99.722,117.525 L130.814,117.525 L123.554,127.896002 L123.554,127.896002 Z" id="路径" fill="#F2D7AD" fill-rule="nonzero"></path>
                <polygon id="路径" fill="#CC9B6E" fill-rule="nonzero" points="123.689 128.447 99.25 128.447 99.25 127.928 123.419 127.928 130.602 117.668 131.026 117.966"></polygon>
                <path d="M158.298,127.896 L139.629,127.896 C138.976156,127.896 138.361454,127.588464 137.97,127.066 L130.814,117.525 L150.779,117.525 C151.269,117.525 151.729,117.755 152.023,118.147 L158.713,127.067 C158.83069,127.224236 158.849542,127.434436 158.761708,127.610104 C158.673874,127.785772 158.494403,127.896811 158.298,127.897" id="路径" fill="#F4D19D" fill-rule="nonzero"></path>
                <path d="M157.847,128.479 L138.463,128.479 L130.606,118.004 L131.021,117.694 L138.721,127.96 L157.847,127.96 L157.847,128.479 Z M130.554,150.685 L130.522,142.508 L131.041,142.506 L131.073,150.683 L130.554,150.685 Z" id="形状" fill="#CC9B6E" fill-rule="nonzero"></path>
                <path d="M130.511,139.783 L130.431,118.369 L130.95,118.367 L131.03,139.781 L130.511,139.783 Z M111.876,140.932 L111.378,140.789 L112.857,135.622 L113.355,135.765 L111.876,140.932 Z M108.437,141.06 L105.758,138.125 L108.423,134.691 L108.833,135.009 L106.436,138.098 L108.82,140.71 L108.437,141.06 Z M116.607,141.06 L116.224,140.71 L118.607,138.098 L116.21,135.009 L116.62,134.691 L119.285,138.125 L116.607,141.06 Z" id="形状" fill="#CC9B6E" fill-rule="nonzero"></path>
                <path d="M154.316,131.892 L151.202,129.932 L151.24,133.446 L150.197,133.538 C148.515,133.653 146.563,133.768 145.408,133.768 C143.506,133.768 142.715,136.026 147.638,136.416 L144.993,135.82 C144.993,135.82 142.825,137.137 145.497,138.12 C145.497,138.12 143.917,139.337 146.058,140.7 C145.474,144.204 151.305,144.758 153.18,144.29 C155.056,143.82 157.413,141.931 157.667,139.13 C157.947,136.045 156.777,133.698 154.317,131.892" id="路径" fill="#FFC6A0" fill-rule="nonzero"></path>
                <path d="M153.686,133.577 C153.686,133.577 147.164,134.047 145.326,133.949 C143.49,133.851 143.422,136.139 147.685,136.213 C151.424,136.363 153.136,136.169 153.136,136.169" id="路径" stroke="#DB836E" stroke-width="1.051" stroke-linecap="round" stroke-linejoin="round"></path>
                <path d="M145.16,135.877 C143.31,137.223 145.721,138.232 145.721,138.232 C145.721,138.232 149.199,139.13 152.451,138.849" id="路径" stroke="#DB836E" stroke-width="1.051" stroke-linecap="round" stroke-linejoin="round"></path>
                <path d="M151.89,141.71 C151.89,141.71 145.61,141.821 145.16,139.578 C144.937,138.232 145.61,138.176 145.61,138.176 M146.114,140.868 C146.114,140.868 145.011,144.028 151.554,144.401 M151.202,129.932 L151.202,133.409 M52.838,89.286 C56.371,88.949 61.261,88.038 66.42,81.532" id="形状" stroke="#DB836E" stroke-width="1.051" stroke-linecap="round" stroke-linejoin="round"></path>
                <path d="M168.567,248.318 C164.895963,248.318 161.92,245.342037 161.92,241.671 L161.92,175.205 C161.92,171.533963 164.895963,168.558 168.567,168.558 C172.238037,168.558 175.214,171.533963 175.214,175.205 L175.214,241.671 C175.214,245.342037 172.238037,248.318 168.567,248.318" id="路径" fill="#5BA02E" fill-rule="nonzero"></path>
                <path d="M176.543,247.653 C172.872354,247.652448 169.897,244.676646 169.897,241.006 L169.897,207.774 C169.867635,205.380007 171.127989,203.155192 173.196492,201.949638 C175.264996,200.744084 177.822004,200.744084 179.890508,201.949638 C181.959011,203.155192 183.219365,205.380007 183.19,207.774 L183.19,241.006 C183.19,244.677037 180.214037,247.653 176.543,247.653" id="路径" fill="#92C110" fill-rule="nonzero"></path>
                <path d="M186.443,293.613 L158.92,293.613 C157.159869,293.613 155.733,292.186131 155.733,290.426 L155.733,244.292 C155.733,242.531869 157.159869,241.105 158.92,241.105 L186.444,241.105 C188.204131,241.105 189.631,242.531869 189.631,244.292 L189.631,290.426 C189.631,292.186131 188.204131,293.613 186.444,293.613" id="路径" fill="#F2D7AD" fill-rule="nonzero"></path>
                <path d="M88.979,89.48 C88.979,89.48 96.755,94.864 105.579,92.322" id="路径" stroke="#E4EBF7" stroke-width="1.101" stroke-linecap="round" stroke-linejoin="round"></path>
            </g>
        </g>
    </g>
</svg>