<?xml version="1.0" encoding="UTF-8"?>
<svg width="365px" height="88px" viewBox="0 0 365 88" version="1.1" xmlns="http://www.w3.org/2000/svg" xmlns:xlink="http://www.w3.org/1999/xlink">
    <!-- Generator: Sketch 58 (84663) - https://sketch.com -->
    <title>Logo备份</title>
    <desc>Created with Sketch.</desc>
    <g id="Logo备份" stroke="none" stroke-width="1" fill="none" fill-rule="evenodd">
        <path d="M179.701946,79 L180.086381,30.8813559 L179.798054,30.8813559 L162.114008,79 L150.580934,79 L133.377432,30.8813559 L133.089105,30.8813559 L133.473541,79 L118,79 L118,11 L141.354475,11 L156.828016,54.6045198 L157.212451,54.6045198 L172.01323,11 L195.75214,11 L195.75214,79 L179.701946,79 Z M246.209339,79 L231.504669,52.0112994 L225.93035,52.0112994 L225.93035,79 L209.784047,79 L209.784047,11 L235.733463,11 C239.001184,11 242.188765,11.3361548 245.296304,12.0084746 C248.403842,12.6807943 251.190973,13.8173178 253.657782,15.4180791 C256.124591,17.0188404 258.094805,19.1318136 259.568482,21.7570621 C261.04216,24.3823107 261.778988,27.6478147 261.778988,31.5536723 C261.778988,36.1638649 260.529584,40.0376491 258.030739,43.1751412 C255.531894,46.3126334 252.072007,48.5536656 247.650973,49.8983051 L265.431128,79 L246.209339,79 Z M245.536576,31.8418079 C245.536576,30.2410466 245.200198,28.9444494 244.527432,27.9519774 C243.854669,26.9595054 242.989694,26.1911515 241.93249,25.6468927 C240.875287,25.1026338 239.689955,24.7344642 238.376459,24.5423729 C237.062964,24.3502815 235.797542,24.2542373 234.580156,24.2542373 L225.834241,24.2542373 L225.834241,40.1016949 L233.619066,40.1016949 C234.964598,40.1016949 236.342146,39.9896433 237.751751,39.7655367 C239.161356,39.5414301 240.442796,39.1412458 241.596109,38.5649718 C242.749422,37.9886977 243.694484,37.1563143 244.431323,36.0677966 C245.168162,34.9792789 245.536576,33.5706301 245.536576,31.8418079 Z M345.585992,79 L329.34358,79 L315.888327,32.9943503 L315.6,32.9943503 L302.144747,79 L285.806226,79 L266.488327,11 L284.172374,11 L294.936576,56.2372881 L295.224903,56.2372881 L307.33463,11 L324.442023,11 L336.64786,56.2372881 L336.936187,56.2372881 L347.892607,11 L365,11 L345.585992,79 Z" id="MRW" fill="#AB0433" fill-rule="nonzero"></path>
        <path d="M90.0705882,45.2912745 C90.0705882,56.7100933 85.8657407,67.1436128 78.9282718,75.1058955 C78.4622434,75.6438156 76.0945011,78.0996072 75.3636838,78.7701433 C72.8958514,80.5703115 69.8566045,81.6301739 66.5732223,81.6301739 C58.2800343,81.6301739 51.5591627,74.871554 51.5591627,66.5369881 C51.5591627,62.3667758 53.1378341,58.4889577 55.8545681,55.7567497 C58.454795,53.0463781 60.0488241,49.3555005 60.0488241,45.2912745 C60.0488241,36.9513826 53.3284821,30.1922302 45.0352941,30.1922302 C36.7474019,30.1922302 30.0270599,36.9513826 30.0270599,45.2912745 L30.0270599,88 C12.535106,81.7851588 0,65.0084428 0,45.2912745 C0,20.275327 20.1663217,0 45.0352941,0 C69.9095623,0 90.0705882,20.275327 90.0705882,45.2912745" id="Fill-1备份" fill="#CC1E46"></path>
    </g>
</svg>