<?xml version="1.0" encoding="UTF-8"?>
<svg width="25px" height="23px" viewBox="0 0 25 23" version="1.1" xmlns="http://www.w3.org/2000/svg" xmlns:xlink="http://www.w3.org/1999/xlink">
    <!-- Generator: Sketch 56.3 (81716) - https://sketch.com -->
    <title>Fill 1</title>
    <desc>Created with Sketch.</desc>
    <g id="Symbols" stroke="none" stroke-width="1" fill="none" fill-rule="evenodd">
        <g id="Logo/Color/Primary" transform="translate(-6.000000, -4.000000)" fill="#CC1E46">
            <path d="M25.5770281,26.1037729 C25.335038,26.2651553 25.0076921,26.2324554 24.7999253,26.0310802 L20.1239591,21.4982563 C19.814817,21.1986244 19.9170823,20.6861685 20.3229071,20.5286284 C22.2104457,19.796134 23.5182923,17.9589774 23.3958005,15.8416364 C23.2561566,13.4268593 21.224848,11.4792129 18.7322129,11.3677822 C15.9178144,11.2420795 13.5954866,13.416273 13.5954866,16.1154691 L13.5954866,26.3216941 C13.5954866,26.7704753 13.1032541,27.0557569 12.693384,26.8470105 C8.73295104,24.8304355 6.02623853,20.8140668 6.00018678,16.1829078 C5.96280818,9.52858678 11.5403916,4.04934648 18.4058378,4.00033578 C25.3518665,3.95077615 31,9.39370931 31,16.1154691 C31,20.2602066 28.8521866,23.9193852 25.5770281,26.1037729 Z" id="Fill-1"></path>
        </g>
    </g>
</svg>