<?xml version="1.0" encoding="UTF-8"?>
<svg width="100px" height="98px" viewBox="0 0 100 98" version="1.1" xmlns="http://www.w3.org/2000/svg" xmlns:xlink="http://www.w3.org/1999/xlink">
    <!-- Generator: Sketch 58 (84663) - https://sketch.com -->
    <title>Fill 1</title>
    <desc>Created with Sketch.</desc>
    <g id="Wallet" stroke="none" stroke-width="1" fill="none" fill-rule="evenodd">
        <g id="icon" fill="#CC1E46">
            <path d="M100,50.2841998 C100,62.9618329 95.3316087,74.5455471 87.6293509,83.3855945 C87.1119473,83.9828151 84.4831844,86.709334 83.6718015,87.4537902 C80.9319144,89.4524096 77.5576199,90.6291115 73.9122766,90.6291115 C64.7048448,90.6291115 57.2430621,83.1254192 57.2430621,73.8720479 C57.2430621,69.24211 58.9957667,64.9368 62.0119944,61.9033925 C64.8988711,58.8942285 66.6686265,54.7964674 66.6686265,50.2841998 C66.6686265,41.0249154 59.2074318,33.5206317 50,33.5206317 C40.7984478,33.5206317 33.3372531,41.0249154 33.3372531,50.2841998 L33.3372531,97.7011494 C13.9169802,90.801182 0,72.1749953 0,50.2841998 C0,22.5104858 22.3894638,3.55271368e-14 50,3.55271368e-14 C77.6164158,3.55271368e-14 100,22.5104858 100,50.2841998" id="Fill-1"></path>
        </g>
    </g>
</svg>